# xmcd CD database file
#
# Track frame offsets:
#	150
#	24475
#	44452
#	62522
#	84145
#	109745
#	125480
#	147675
#	169122
#	198295
#
# Disc length: 2927 seconds
#
# Revision: 0
# Processed by: cddbd v1.5PL3 Copyright (c) Steve Scherf et al.
# Submitted via: CDex 1.51
#
DISCID=840b6d0a
DTITLE=Placentero Ritmo y Cuèrde - E caminda di triumfo...
DYEAR=1994
DGENRE=Salsa
TTITLE0=Wak den bo luga
TTITLE1=E lagadihi
TTITLE2=Me mata el quayabo
TTITLE3=Amor inseparabel
TTITLE4=Sara Marie
TTITLE5=Amor y flor
TTITLE6=Ilushonperdí
TTITLE7=Amor puro y sincero
TTITLE8=Ven mi vida
TTITLE9=Senjor manda bo bendishon
EXTD=YEAR: 1994
EXTT0=
EXTT1=
EXTT2=
EXTT3=
EXTT4=
EXTT5=
EXTT6=
EXTT7=
EXTT8=
EXTT9=
PLAYORDER=
